<?xml version="1.0" encoding="UTF-8"?>
<svg width="320px" height="45px" viewBox="0 0 320 45" version="1.1" xmlns="http://www.w3.org/2000/svg" xmlns:xlink="http://www.w3.org/1999/xlink">
    <!-- Generator: Sketch 49.1 (51147) - http://www.bohemiancoding.com/sketch -->
    <title>logo</title>
    <desc>Created with Sketch.</desc>
    <defs>
        <polygon id="path-1" points="0.06 0.449 0.06 37 16.6345 37 33.209 37 33.209 0.449 0.06 0.449"></polygon>
    </defs>
    <g id="Page-1" stroke="none" stroke-width="1" fill="none" fill-rule="evenodd">
        <g id="logo">
            <g id="Group-3" transform="translate(0.000000, 8.000000)">
                <mask id="mask-2" fill="white">
                    <use xlink:href="#path-1"></use>
                </mask>
                <g id="Clip-2"></g>
                <path d="M24.333,30.421 L24.333,27.653 C24.333,20.5 23.863,19.978 19.215,19.769 L18.119,19.717 L18.119,19.56 L33.209,19.56 L33.209,19.717 L32.113,19.769 C29.554,19.874 29.084,20.5 29.084,27.653 L29.084,37 L28.98,37 C27.622,35.277 26.317,34.128 25.22,34.128 C24.594,34.128 24.176,34.389 23.34,34.964 C21.409,36.269 18.902,37 16.396,37 C5.535,37 0,28.071 0,18.777 C0,9.378 5.535,0.449 16.396,0.449 C18.746,0.449 20.782,1.076 22.505,2.225 C23.027,2.59 23.549,2.956 24.176,2.956 C25.116,2.956 26.16,1.963 27.413,0.449 L27.518,0.449 L27.518,10.579 L27.361,10.579 L26.787,8.804 C25.377,4.417 21.931,0.658 16.5,0.658 C8.094,0.658 5.378,9.691 5.378,18.725 C5.378,27.758 8.094,36.791 16.5,36.791 C18.746,36.791 21.356,35.956 23.027,34.755 C24.228,33.867 24.333,33.189 24.333,30.421" id="Fill-1" fill="#1C1B19" mask="url(#mask-2)"></path>
            </g>
            <path d="M41.827,36.228 C41.827,43.277 41.983,44.112 44.281,44.112 L48.458,44.112 C53.575,44.112 56.029,42.964 59.11,33.513 L59.685,31.737 L59.841,31.737 L59.841,44.321 L32.95,44.321 L32.95,44.164 L34.047,44.112 C36.605,44.008 37.075,43.381 37.075,36.228 L37.075,17.221 C37.075,10.068 36.605,9.441 34.047,9.337 L32.95,9.285 L32.95,9.128 L45.952,9.128 L45.952,9.285 L44.855,9.337 C42.297,9.441 41.827,10.068 41.827,17.221 L41.827,36.228" id="Fill-4" fill="#1C1B19"></path>
            <path d="M69.347,29.492 L81.408,29.492 L75.352,13.775 L69.347,29.492 Z M81.513,29.701 L69.242,29.701 L68.25,32.312 C67.258,34.87 66.736,37.638 66.736,39.935 C66.736,42.285 67.206,43.956 69.66,44.112 L70.756,44.164 L70.756,44.321 L60.157,44.321 L60.157,44.164 L60.731,44.112 C62.872,43.904 63.864,43.172 68.041,32.312 L77.127,8.606 L77.701,8.606 L88.719,35.549 C91.799,43.068 92.321,43.852 94.462,44.112 L94.88,44.164 L94.88,44.321 L82.4,44.321 L82.4,44.164 L83.758,44.112 C87.1,44.008 86.212,41.867 83.862,35.81 L81.513,29.701 L81.513,29.701 Z" id="Fill-5" fill="#1C1B19"></path>
            <path d="M98.798,17.221 C98.798,10.068 97.702,9.441 95.143,9.337 L94.203,9.285 L94.203,9.128 L103.027,9.128 L115.768,29.44 L126.995,9.128 L135.192,9.128 L135.192,9.285 L134.096,9.337 C131.537,9.441 131.067,10.068 131.067,17.221 L131.067,36.228 C131.067,43.381 131.537,44.008 134.096,44.112 L135.192,44.164 L135.192,44.321 L122.191,44.321 L122.191,44.164 L123.287,44.112 C125.846,44.008 126.316,43.381 126.316,36.228 L126.316,10.694 L113.627,33.878 L112.949,33.878 L99.007,12 L99.007,31.789 C99.007,36.071 100.469,43.904 104.438,44.112 L105.534,44.164 L105.534,44.321 L94.203,44.321 L94.203,44.164 L94.777,44.112 C97.649,43.852 98.798,39.831 98.798,31.789 L98.798,17.221" id="Fill-6" fill="#1C1B19"></path>
            <path d="M153.837,8.658 C144.855,8.658 141.983,17.221 141.983,26.725 C141.983,36.123 144.855,44.791 153.837,44.791 C162.817,44.791 165.689,36.228 165.689,26.725 C165.689,17.326 162.817,8.658 153.837,8.658 Z M153.837,45 C142.767,45 136.605,36.228 136.605,26.672 C136.605,17.117 142.767,8.449 153.837,8.449 C164.906,8.449 171.067,17.117 171.067,26.672 C171.067,36.228 164.906,45 153.837,45 L153.837,45 Z" id="Fill-7" fill="#1C1B19"></path>
            <path d="M205.011,21.66 C205.011,17.378 203.549,9.546 199.58,9.337 L198.483,9.285 L198.483,9.128 L209.867,9.128 L209.867,9.285 L209.292,9.337 C206.421,9.598 205.22,13.619 205.22,21.66 L205.22,32.677 C205.22,39.883 200.103,44.895 191.226,44.895 C182.245,44.895 176.554,40.249 176.554,32.677 L176.554,17.221 C176.554,10.068 176.083,9.441 173.524,9.337 L172.429,9.285 L172.429,9.128 L185.43,9.128 L185.43,9.285 L184.333,9.337 C181.774,9.441 181.305,10.068 181.305,17.221 L181.305,32.625 C181.305,39.622 185.325,44.06 193.105,44.06 C200.834,44.06 205.011,39.047 205.011,32.677 L205.011,21.66" id="Fill-8" fill="#1C1B19"></path>
            <path d="M227.728,26.672 C232.845,26.672 233.941,22.809 233.941,18.109 C233.941,12.417 231.644,9.337 227.779,9.337 L221.879,9.337 C219.582,9.337 219.425,10.172 219.425,17.221 L219.425,26.672 L227.728,26.672 Z M244.019,44.112 L244.958,44.164 L244.958,44.321 L236.291,44.321 C235.82,43.329 235.194,42.024 234.098,39.987 C233.054,38.055 231.487,34.922 230.547,33.304 C227.361,27.717 226.317,26.881 222.767,26.881 L219.425,26.881 L219.425,36.228 C219.425,43.381 219.895,44.008 222.453,44.112 L223.55,44.164 L223.55,44.321 L210.549,44.321 L210.549,44.164 L211.645,44.112 C214.203,44.008 214.674,43.381 214.674,36.228 L214.674,17.221 C214.674,10.068 214.203,9.441 211.645,9.337 L210.549,9.285 L210.549,9.128 L227.779,9.128 C234.045,9.128 239.267,12.104 239.267,18.004 C239.267,21.816 236.552,24.636 232.949,25.941 C230.442,26.829 227.937,26.986 224.96,26.881 C230.86,28.396 233.471,30.223 235.82,33.878 C236.447,34.87 238.066,37.638 238.588,38.525 C240.521,41.71 242.087,44.008 244.019,44.112 L244.019,44.112 Z" id="Fill-9" fill="#1C1B19"></path>
            <path d="M56.012,3.935 L55.529,5.249 L56.991,5.249 L56.937,5.437 L55.475,5.437 L53.946,9.704 C53.901,9.838 53.856,9.977 53.812,10.12 C53.767,10.263 53.744,10.406 53.744,10.549 C53.744,10.684 53.778,10.791 53.845,10.871 C53.912,10.952 54.021,10.992 54.174,10.992 C54.334,10.992 54.487,10.943 54.63,10.844 C54.773,10.746 54.903,10.632 55.019,10.502 C55.135,10.373 55.234,10.241 55.314,10.106 C55.395,9.972 55.453,9.865 55.489,9.784 L55.649,9.852 C55.614,9.923 55.556,10.033 55.475,10.18 C55.395,10.328 55.287,10.476 55.153,10.623 C55.019,10.771 54.851,10.898 54.65,11.005 C54.449,11.113 54.21,11.167 53.932,11.167 C53.592,11.167 53.337,11.083 53.168,10.918 C52.998,10.753 52.913,10.554 52.913,10.321 C52.913,10.142 52.946,9.938 53.013,9.71 C53.08,9.482 53.149,9.274 53.221,9.086 L54.536,5.437 L53.329,5.437 L53.382,5.249 L54.59,5.249 L55.073,3.935 L56.012,3.935" id="Fill-10" fill="#1C1B19"></path>
            <path d="M58.936,0.996 L58.99,0.808 L61.11,0.808 L58.87,6.886 L58.896,6.886 C59.031,6.708 59.187,6.517 59.366,6.316 C59.545,6.115 59.742,5.929 59.956,5.759 C60.171,5.589 60.397,5.448 60.634,5.336 C60.871,5.225 61.11,5.169 61.352,5.169 C61.728,5.169 62.025,5.27 62.244,5.471 C62.463,5.672 62.573,5.92 62.573,6.215 C62.573,6.368 62.548,6.517 62.499,6.665 C62.45,6.812 62.389,6.989 62.318,7.195 L61.446,9.677 C61.392,9.829 61.343,9.979 61.298,10.126 C61.253,10.274 61.231,10.419 61.231,10.562 C61.231,10.67 61.253,10.769 61.298,10.858 C61.343,10.947 61.437,10.992 61.58,10.992 C61.741,10.992 61.889,10.947 62.022,10.858 C62.157,10.769 62.28,10.661 62.392,10.536 C62.503,10.411 62.6,10.279 62.68,10.14 C62.761,10.001 62.823,9.883 62.868,9.784 L63.016,9.852 C62.971,9.941 62.908,10.06 62.828,10.207 C62.747,10.354 62.642,10.5 62.512,10.643 C62.383,10.786 62.224,10.909 62.036,11.012 C61.848,11.115 61.624,11.167 61.365,11.167 C61.079,11.167 60.837,11.104 60.641,10.979 C60.444,10.854 60.346,10.648 60.346,10.361 C60.346,10.245 60.361,10.125 60.393,9.999 C60.424,9.874 60.461,9.74 60.506,9.597 L61.634,6.39 C61.705,6.175 61.741,5.996 61.741,5.853 C61.741,5.737 61.703,5.625 61.627,5.518 C61.551,5.41 61.414,5.356 61.218,5.356 C61.021,5.356 60.792,5.43 60.533,5.578 C60.274,5.726 60.015,5.927 59.755,6.182 C59.496,6.437 59.252,6.736 59.024,7.081 C58.796,7.425 58.61,7.799 58.467,8.201 L57.461,11.005 L56.535,11.005 L60.158,0.996 L58.936,0.996" id="Fill-11" fill="#1C1B19"></path>
            <path d="M67.953,5.451 C67.846,5.325 67.667,5.263 67.416,5.263 C67.139,5.263 66.873,5.343 66.618,5.504 C66.363,5.665 66.133,5.864 65.927,6.101 C65.721,6.338 65.543,6.593 65.391,6.866 C65.238,7.139 65.122,7.392 65.041,7.624 C65.248,7.66 65.476,7.678 65.726,7.678 C66.048,7.678 66.352,7.629 66.638,7.53 C66.924,7.432 67.177,7.302 67.396,7.141 C67.616,6.98 67.79,6.792 67.92,6.578 C68.049,6.363 68.114,6.14 68.114,5.907 C68.114,5.728 68.061,5.576 67.953,5.451 Z M67.899,10.033 C67.793,10.198 67.645,10.364 67.457,10.529 C67.269,10.695 67.039,10.842 66.766,10.972 C66.493,11.102 66.164,11.167 65.78,11.167 C65.395,11.167 65.071,11.104 64.807,10.979 C64.543,10.854 64.328,10.692 64.163,10.496 C63.997,10.299 63.876,10.082 63.801,9.845 C63.725,9.608 63.687,9.377 63.687,9.154 C63.687,8.707 63.796,8.244 64.015,7.765 C64.234,7.287 64.521,6.848 64.874,6.45 C65.227,6.052 65.627,5.724 66.075,5.464 C66.522,5.205 66.978,5.075 67.443,5.075 C67.622,5.075 67.801,5.095 67.98,5.135 C68.159,5.175 68.32,5.236 68.463,5.316 C68.606,5.397 68.723,5.5 68.812,5.625 C68.901,5.75 68.946,5.902 68.946,6.081 C68.946,6.323 68.881,6.535 68.752,6.718 C68.622,6.902 68.454,7.059 68.248,7.188 C68.042,7.318 67.817,7.428 67.571,7.517 C67.325,7.606 67.085,7.676 66.853,7.725 C66.62,7.774 66.408,7.81 66.216,7.832 C66.023,7.854 65.882,7.866 65.793,7.866 C65.641,7.866 65.493,7.861 65.35,7.852 C65.207,7.843 65.082,7.83 64.975,7.812 C64.876,8.098 64.794,8.382 64.727,8.664 C64.659,8.946 64.626,9.243 64.626,9.556 C64.626,10.04 64.751,10.399 65.002,10.636 C65.252,10.874 65.569,10.992 65.954,10.992 C66.24,10.992 66.493,10.936 66.712,10.824 C66.931,10.712 67.123,10.581 67.289,10.428 C67.455,10.276 67.593,10.122 67.705,9.965 C67.817,9.809 67.908,9.686 67.98,9.597 L68.141,9.69 C68.087,9.753 68.007,9.867 67.899,10.033 L67.899,10.033 Z" id="Fill-12" fill="#1C1B19"></path>
            <path d="M255.63,36.228 C255.63,43.381 256.1,44.008 258.658,44.112 L259.755,44.164 L259.755,44.321 L246.754,44.321 L246.754,44.164 L247.85,44.112 C250.408,44.008 250.879,43.381 250.879,36.228 L250.879,17.221 C250.879,10.068 250.408,9.441 247.85,9.337 L246.754,9.285 L246.754,9.128 L259.755,9.128 L259.755,9.285 L258.658,9.337 C256.1,9.441 255.63,10.068 255.63,17.221 L255.63,36.228" id="Fill-13" fill="#979797"></path>
            <path d="M274.951,45 C272.602,45 270.355,44.53 267.954,42.964 C267.171,42.441 266.701,42.181 266.022,42.181 C264.873,42.181 263.672,43.329 262.367,45 L262.263,45 L262.263,33.304 L262.419,33.304 L263.046,35.236 C264.403,39.361 267.693,44.791 274.898,44.791 C279.546,44.791 283.044,42.703 283.044,37.899 C283.044,27.299 263.725,29.44 263.725,17.691 C263.725,12.157 268.319,8.449 274.011,8.449 C276.204,8.449 278.136,9.023 279.964,10.225 C280.643,10.694 281.164,10.956 281.687,10.956 C282.574,10.956 283.671,9.911 284.872,8.449 L284.977,8.449 L284.977,18.579 L284.819,18.579 L284.245,16.752 C282.679,11.478 278.502,8.658 274.168,8.658 C269.834,8.658 267.38,10.903 267.38,14.402 C267.38,25.21 286.96,23.069 286.96,35.393 C286.96,41.136 281.844,45 274.951,45" id="Fill-14" fill="#979797"></path>
            <path d="M311.295,44.321 L298.293,44.321 L298.293,44.164 L299.39,44.112 C301.948,44.008 302.418,43.381 302.418,36.228 L302.418,17.221 C302.418,10.172 302.262,9.337 299.964,9.337 L298.606,9.337 C296.987,9.337 293.333,9.702 290.67,17.848 L290.095,19.623 L289.938,19.623 L289.938,9.128 L319.649,9.128 L319.649,19.623 L319.492,19.623 L318.918,17.848 C316.255,9.702 312.601,9.337 310.981,9.337 L309.624,9.337 C307.326,9.337 307.17,10.172 307.17,17.221 L307.17,36.228 C307.17,43.381 307.64,44.008 310.198,44.112 L311.295,44.164 L311.295,44.321" id="Fill-15" fill="#979797"></path>
            <path d="M56.012,3.935 L55.529,5.249 L56.991,5.249 L56.937,5.437 L55.475,5.437 L53.946,9.704 C53.901,9.838 53.856,9.977 53.812,10.12 C53.767,10.263 53.744,10.406 53.744,10.549 C53.744,10.684 53.778,10.791 53.845,10.871 C53.912,10.952 54.021,10.992 54.174,10.992 C54.334,10.992 54.487,10.943 54.63,10.844 C54.773,10.746 54.903,10.632 55.019,10.502 C55.135,10.373 55.234,10.241 55.314,10.106 C55.395,9.972 55.453,9.865 55.489,9.784 L55.649,9.852 C55.614,9.923 55.556,10.033 55.475,10.18 C55.395,10.328 55.287,10.476 55.153,10.623 C55.019,10.771 54.851,10.898 54.65,11.005 C54.449,11.113 54.21,11.167 53.932,11.167 C53.592,11.167 53.337,11.083 53.168,10.918 C52.998,10.753 52.913,10.554 52.913,10.321 C52.913,10.142 52.946,9.938 53.013,9.71 C53.08,9.482 53.149,9.274 53.221,9.086 L54.536,5.437 L53.329,5.437 L53.382,5.249 L54.59,5.249 L55.073,3.935 L56.012,3.935" id="Fill-16" fill="#1C1B19"></path>
            <path d="M58.936,0.996 L58.99,0.808 L61.11,0.808 L58.87,6.886 L58.896,6.886 C59.031,6.708 59.187,6.517 59.366,6.316 C59.545,6.115 59.742,5.929 59.956,5.759 C60.171,5.589 60.397,5.448 60.634,5.336 C60.871,5.225 61.11,5.169 61.352,5.169 C61.728,5.169 62.025,5.27 62.244,5.471 C62.463,5.672 62.573,5.92 62.573,6.215 C62.573,6.368 62.548,6.517 62.499,6.665 C62.45,6.812 62.389,6.989 62.318,7.195 L61.446,9.677 C61.392,9.829 61.343,9.979 61.298,10.126 C61.253,10.274 61.231,10.419 61.231,10.562 C61.231,10.67 61.253,10.769 61.298,10.858 C61.343,10.947 61.437,10.992 61.58,10.992 C61.741,10.992 61.889,10.947 62.022,10.858 C62.157,10.769 62.28,10.661 62.392,10.536 C62.503,10.411 62.6,10.279 62.68,10.14 C62.761,10.001 62.823,9.883 62.868,9.784 L63.016,9.852 C62.971,9.941 62.908,10.06 62.828,10.207 C62.747,10.354 62.642,10.5 62.512,10.643 C62.383,10.786 62.224,10.909 62.036,11.012 C61.848,11.115 61.624,11.167 61.365,11.167 C61.079,11.167 60.837,11.104 60.641,10.979 C60.444,10.854 60.346,10.648 60.346,10.361 C60.346,10.245 60.361,10.125 60.393,9.999 C60.424,9.874 60.461,9.74 60.506,9.597 L61.634,6.39 C61.705,6.175 61.741,5.996 61.741,5.853 C61.741,5.737 61.703,5.625 61.627,5.518 C61.551,5.41 61.414,5.356 61.218,5.356 C61.021,5.356 60.792,5.43 60.533,5.578 C60.274,5.726 60.015,5.927 59.755,6.182 C59.496,6.437 59.252,6.736 59.024,7.081 C58.796,7.425 58.61,7.799 58.467,8.201 L57.461,11.005 L56.535,11.005 L60.158,0.996 L58.936,0.996" id="Fill-17" fill="#1C1B19"></path>
            <path d="M67.953,5.451 C67.846,5.325 67.667,5.263 67.416,5.263 C67.139,5.263 66.873,5.343 66.618,5.504 C66.363,5.665 66.133,5.864 65.927,6.101 C65.721,6.338 65.543,6.593 65.391,6.866 C65.238,7.139 65.122,7.392 65.041,7.624 C65.248,7.66 65.476,7.678 65.726,7.678 C66.048,7.678 66.352,7.629 66.638,7.53 C66.924,7.432 67.177,7.302 67.396,7.141 C67.616,6.98 67.79,6.792 67.92,6.578 C68.049,6.363 68.114,6.14 68.114,5.907 C68.114,5.728 68.061,5.576 67.953,5.451 Z M67.899,10.033 C67.793,10.198 67.645,10.364 67.457,10.529 C67.269,10.695 67.039,10.842 66.766,10.972 C66.493,11.102 66.164,11.167 65.78,11.167 C65.395,11.167 65.071,11.104 64.807,10.979 C64.543,10.854 64.328,10.692 64.163,10.496 C63.997,10.299 63.876,10.082 63.801,9.845 C63.725,9.608 63.687,9.377 63.687,9.154 C63.687,8.707 63.796,8.244 64.015,7.765 C64.234,7.287 64.521,6.848 64.874,6.45 C65.227,6.052 65.627,5.724 66.075,5.464 C66.522,5.205 66.978,5.075 67.443,5.075 C67.622,5.075 67.801,5.095 67.98,5.135 C68.159,5.175 68.32,5.236 68.463,5.316 C68.606,5.397 68.723,5.5 68.812,5.625 C68.901,5.75 68.946,5.902 68.946,6.081 C68.946,6.323 68.881,6.535 68.752,6.718 C68.622,6.902 68.454,7.059 68.248,7.188 C68.042,7.318 67.817,7.428 67.571,7.517 C67.325,7.606 67.085,7.676 66.853,7.725 C66.62,7.774 66.408,7.81 66.216,7.832 C66.023,7.854 65.882,7.866 65.793,7.866 C65.641,7.866 65.493,7.861 65.35,7.852 C65.207,7.843 65.082,7.83 64.975,7.812 C64.876,8.098 64.794,8.382 64.727,8.664 C64.659,8.946 64.626,9.243 64.626,9.556 C64.626,10.04 64.751,10.399 65.002,10.636 C65.252,10.874 65.569,10.992 65.954,10.992 C66.24,10.992 66.493,10.936 66.712,10.824 C66.931,10.712 67.123,10.581 67.289,10.428 C67.455,10.276 67.593,10.122 67.705,9.965 C67.817,9.809 67.908,9.686 67.98,9.597 L68.141,9.69 C68.087,9.753 68.007,9.867 67.899,10.033 L67.899,10.033 Z" id="Fill-18" fill="#1C1B19"></path>
        </g>
    </g>
</svg>